<svg xmlns="http://www.w3.org/2000/svg" width="51.411" height="41.319" viewBox="0 0 51.411 41.319"><g transform="translate(-2.253 -5.348)"><path d="M9.861,13.1c-.287.344-.562.689-.826,1.056A107.571,107.571,0,0,0,23.288,27.2a111.268,111.268,0,0,0,12.784,8.618c.677.379,1.343.746,1.985,1.079.287-.344.562-.689.826-1.056a17.184,17.184,0,0,0,2.674-6.151c.092-.367.172-.734.241-1.09A18.443,18.443,0,0,0,16,8.38,17.128,17.128,0,0,0,9.861,13.1Z" transform="translate(4.287 0.852)" fill="#fff"/><path d="M46.567,34.122a21.379,21.379,0,0,1-.849,2.008,28.683,28.683,0,0,1,3.661,5.325c.275.471.849,1.5.1,1.423a5.472,5.472,0,0,1-.631-.149,43.533,43.533,0,0,1-9.674-4.292,113.936,113.936,0,0,1-13-8.756A107.224,107.224,0,0,1,11.188,15.853a39.388,39.388,0,0,1-4.1-5.5,8.669,8.669,0,0,1-.643-1.193c-.287-.711.574-.585.8-.528a24.046,24.046,0,0,1,6.679,2.731,9.645,9.645,0,0,1,1.6-1.308A37.5,37.5,0,0,0,8.044,5.984c-2.651-1.01-4.717-.78-5.451.425-1.4,2.284,1.607,8.3,7.494,15.148A18.442,18.442,0,0,0,36.859,42.213a65.449,65.449,0,0,0,11.12,4.005c2.743.7,4.636.631,5.371-.562C54.623,43.567,51.961,39.711,46.567,34.122Z" fill="#fff"/></g></svg>