<svg xmlns="http://www.w3.org/2000/svg" width="44.461" height="44.424" viewBox="0 0 44.461 44.424"><g transform="translate(-3.366 -3.372)"><path d="M47.593,3.975a.472.472,0,0,0-.353-.363C41.428,2.191,28,7.255,20.721,14.531a31.451,31.451,0,0,0-3.537,4.178,13.16,13.16,0,0,0-6.4.8c-5.4,2.372-6.966,8.569-7.4,11.23a.957.957,0,0,0,1.047,1.111l8.665-.951a19.264,19.264,0,0,0,.118,1.955,1.939,1.939,0,0,0,.566,1.186L17.131,37.4a1.939,1.939,0,0,0,1.186.566,19.229,19.229,0,0,0,1.945.118l-.951,8.655a.957.957,0,0,0,1.111,1.047c2.66-.427,8.868-2,11.23-7.394a13.219,13.219,0,0,0,.812-6.379,31.5,31.5,0,0,0,4.188-3.537C43.96,23.207,48.992,10.076,47.593,3.975ZM30.155,21.06a4.563,4.563,0,1,1,6.454,0A4.559,4.559,0,0,1,30.155,21.06Z" transform="translate(0 0)" fill="#fff"/><path d="M15.638,28.527h0a4.053,4.053,0,0,1-2.116.855,2.876,2.876,0,0,1-3.312-3.312,3.974,3.974,0,0,1,.844-2.1l.011-.011a.357.357,0,0,0-.3-.609,4.912,4.912,0,0,0-2.874,1.4c-1.923,1.923-2.1,9.061-2.1,9.061s7.148-.182,9.071-2.1a4.879,4.879,0,0,0,1.4-2.874A.366.366,0,0,0,15.638,28.527Z" transform="translate(1.258 10.376)" fill="#fff"/></g></svg>